<?xml version="1.0" encoding="UTF-8" standalone="no"?>
<!DOCTYPE svg PUBLIC "-//W3C//DTD SVG 1.1//EN" "http://www.w3.org/Graphics/SVG/1.1/DTD/svg11.dtd">
<svg width="100%" height="100%" viewBox="0 0 600 600" version="1.1" xmlns="http://www.w3.org/2000/svg" xmlns:xlink="http://www.w3.org/1999/xlink" xml:space="preserve" xmlns:serif="http://www.serif.com/" style="fill-rule:evenodd;clip-rule:evenodd;stroke-linecap:round;stroke-linejoin:round;stroke-miterlimit:1.5;">
    <g transform="matrix(1,0,0,1,-5.68434e-14,-672.304)">
        <g id="Home-s" serif:id="Home s" transform="matrix(1,0,0,1,5.68434e-14,672.304)">
            <rect x="0" y="0" width="600" height="600" style="fill:none;"/>
            <g transform="matrix(1.53496,0,0,1.53496,-116.199,-179.343)">
                <g transform="matrix(1,0,0,1,-2.24031,8.41938)">
                    <path d="M136.72,434.495C136.72,434.495 136.545,336.954 136.95,293.072C137.079,279.052 212.697,172.069 272.481,171.584C336.459,171.065 408.379,272.662 408.625,285.445C409.484,330.018 410.089,436.145 410.089,436.145L136.72,434.495Z" style="fill:none;stroke:rgb(95,193,138);stroke-width:22.8px;"/>
                </g>
                <g transform="matrix(1,0,0,0.99006,-0.0188768,3.25873)">
                    <path d="M218.609,380.395C218.609,351.389 242.158,327.84 271.164,327.84C300.171,327.84 323.72,351.389 323.72,380.395L323.72,444.564L218.609,444.564L218.609,380.395Z" style="fill:none;stroke:rgb(95,193,138);stroke-width:22.92px;"/>
                </g>
            </g>
        </g>
    </g>
</svg>
