<?xml version="1.0" encoding="UTF-8" standalone="no"?>
<!DOCTYPE svg PUBLIC "-//W3C//DTD SVG 1.1//EN" "http://www.w3.org/Graphics/SVG/1.1/DTD/svg11.dtd">
<svg width="100%" height="100%" viewBox="0 0 600 600" version="1.1" xmlns="http://www.w3.org/2000/svg" xmlns:xlink="http://www.w3.org/1999/xlink" xml:space="preserve" xmlns:serif="http://www.serif.com/" style="fill-rule:evenodd;clip-rule:evenodd;stroke-linecap:round;stroke-linejoin:round;stroke-miterlimit:1.5;">
    <g transform="matrix(1,0,0,1,-1327.97,-672.304)">
        <g id="Message-s" serif:id="Message s" transform="matrix(1,0,0,1,27.9716,672.304)">
            <rect x="1300" y="0" width="600" height="600" style="fill:none;"/>
            <g transform="matrix(1.63557,0,0,1.50254,-1032.64,-158.082)">
                <path d="M1756.75,244.49C1756.75,211.164 1731.9,184.108 1701.28,184.108L1517.95,184.108C1487.33,184.108 1462.48,211.164 1462.48,244.49L1462.48,365.253C1462.48,398.579 1487.33,425.635 1517.95,425.635L1701.28,425.635C1731.9,425.635 1756.75,398.579 1756.75,365.253L1756.75,244.49Z" style="fill:none;stroke:rgb(95,193,138);stroke-width:22.29px;"/>
            </g>
            <g transform="matrix(1,0,0,1,13.669,20.8961)">
                <path d="M1499.81,221.854C1499.81,218.32 1496.94,215.45 1493.41,215.45L1422.93,215.45C1419.4,215.45 1416.53,218.32 1416.53,221.854L1416.53,234.662C1416.53,238.196 1419.4,241.065 1422.93,241.065L1493.41,241.065C1496.94,241.065 1499.81,238.196 1499.81,234.662L1499.81,221.854Z" style="fill:rgb(95,193,138);stroke:rgb(95,193,138);stroke-width:20px;"/>
            </g>
            <g transform="matrix(1,0,0,1,269.99,122.588)">
                <path d="M1499.81,221.854C1499.81,218.32 1496.94,215.45 1493.41,215.45L1422.93,215.45C1419.4,215.45 1416.53,218.32 1416.53,221.854L1416.53,234.662C1416.53,238.196 1419.4,241.065 1422.93,241.065L1493.41,241.065C1496.94,241.065 1499.81,238.196 1499.81,234.662L1499.81,221.854Z" style="fill:rgb(95,193,138);stroke:rgb(95,193,138);stroke-width:20px;"/>
            </g>
            <g transform="matrix(2.37476,0,0,1,-1791.89,20.8961)">
                <path d="M1499.81,221.854C1499.81,218.32 1498.6,215.45 1497.11,215.45L1419.23,215.45C1417.74,215.45 1416.53,218.32 1416.53,221.854L1416.53,234.662C1416.53,238.196 1417.74,241.065 1419.23,241.065L1497.11,241.065C1498.6,241.065 1499.81,238.196 1499.81,234.662L1499.81,221.854Z" style="fill:rgb(95,193,138);stroke:rgb(95,193,138);stroke-width:10.98px;"/>
            </g>
            <g transform="matrix(2.37476,0,0,1,-1933.72,122.588)">
                <path d="M1499.81,221.854C1499.81,218.32 1498.6,215.45 1497.11,215.45L1419.23,215.45C1417.74,215.45 1416.53,218.32 1416.53,221.854L1416.53,234.662C1416.53,238.196 1417.74,241.065 1419.23,241.065L1497.11,241.065C1498.6,241.065 1499.81,238.196 1499.81,234.662L1499.81,221.854Z" style="fill:rgb(95,193,138);stroke:rgb(95,193,138);stroke-width:10.98px;"/>
            </g>
        </g>
    </g>
</svg>
